<mxfile host="app.diagrams.net" modified="2024-06-10T02:57:31.306Z" agent="Mozilla/5.0 (Windows NT 10.0; Win64; x64; rv:125.0) Gecko/20100101 Firefox/125.0" version="24.2.7" etag="ISwywa-DNniV_PBsgoyr" type="github">
  <diagram name="Page-1" id="w-5S0jQbd1gtQSEjguHW">
    <mxGraphModel>
      <root>
        <mxCell id="0" />
        <mxCell id="1" parent="0" />
      </root>
    </mxGraphModel>
  </diagram>
</mxfile>
